<?xml version="1.0" standalone="no"?>
<!DOCTYPE svg PUBLIC "-//W3C//DTD SVG 20010904//EN"
 "http://www.w3.org/TR/2001/REC-SVG-20010904/DTD/svg10.dtd">
<svg version="1.0" xmlns="http://www.w3.org/2000/svg"
 width="935.000000pt" height="680.000000pt" viewBox="0 0 935.000000 680.000000"
 preserveAspectRatio="xMidYMid meet">

<g transform="translate(0.000000,680.000000) scale(0.100000,-0.100000)"
fill="#000000" stroke="none">
<path d="M3280 3525 l0 -545 95 0 95 0 0 545 0 545 -95 0 -95 0 0 -545z"/>
<path d="M4792 4050 c-97 -26 -174 -71 -248 -145 -97 -96 -164 -256 -164 -389
0 -48 26 -176 38 -188 4 -4 57 75 116 177 60 101 117 192 127 201 27 24 60 11
88 -35 14 -22 28 -38 32 -35 4 2 29 41 55 87 59 102 72 117 99 117 31 0 42
-16 126 -177 41 -79 77 -143 81 -143 3 0 18 21 33 48 38 66 55 82 81 82 19 0
41 -27 115 -141 105 -160 108 -161 116 -25 16 242 -133 469 -363 553 -97 35
-232 41 -332 13z"/>
<path d="M5665 4013 c-58 -14 -89 -87 -61 -141 20 -38 44 -52 91 -52 47 0 81
24 95 65 15 44 -7 98 -49 119 -31 16 -41 17 -76 9z"/>
<path d="M6773 4006 c-39 -18 -53 -43 -53 -94 0 -57 37 -92 97 -92 91 0 136
94 76 160 -33 36 -76 45 -120 26z"/>
<path d="M2710 3704 c-14 -2 -53 -11 -87 -20 l-63 -16 0 -69 c0 -38 3 -69 6
-69 3 0 31 8 62 17 78 23 246 24 287 1 46 -24 66 -52 72 -97 6 -46 2 -48 -50
-26 -98 41 -261 39 -345 -4 -79 -41 -122 -117 -122 -215 0 -141 114 -239 279
-239 92 0 141 13 204 53 l47 30 0 -30 0 -30 85 0 85 0 0 253 c0 244 -1 254
-24 303 -29 62 -90 115 -159 139 -50 17 -222 29 -277 19z m241 -414 c36 -19
39 -23 39 -63 0 -50 -29 -85 -92 -111 -54 -23 -155 -21 -195 4 -62 37 -63 147
-1 181 57 31 176 26 249 -11z"/>
<path d="M6257 3699 c-50 -12 -116 -46 -149 -77 l-28 -26 0 47 0 47 -90 0 -90
0 0 -350 0 -350 90 0 90 0 0 229 0 229 40 41 c22 22 57 48 77 57 54 23 152 24
187 1 51 -34 56 -64 56 -322 l0 -235 91 0 90 0 -3 273 c-3 258 -4 274 -25 313
-58 108 -192 157 -336 123z"/>
<path d="M3570 3431 c0 -274 5 -307 50 -372 84 -117 328 -124 461 -12 l29 25
0 -41 0 -41 90 0 90 0 0 350 0 350 -90 0 -90 0 0 -233 0 -233 -36 -36 c-19
-20 -54 -46 -78 -57 -54 -26 -146 -28 -187 -4 -54 32 -59 57 -59 322 l0 241
-90 0 -90 0 0 -259z"/>
<path d="M4923 3678 c-6 -7 -86 -141 -178 -297 l-168 -285 29 -23 c40 -34 109
-68 173 -87 30 -9 56 -16 57 -16 1 0 7 13 12 30 6 16 61 115 122 220 l112 189
-67 133 c-77 151 -78 154 -92 136z"/>
<path d="M5600 3340 l0 -350 95 0 95 0 0 350 0 350 -95 0 -95 0 0 -350z"/>
<path d="M6730 3340 l0 -350 90 0 90 0 0 350 0 350 -90 0 -90 0 0 -350z"/>
<path d="M4680 3563 c-190 -314 -208 -348 -195 -368 7 -11 16 -20 20 -20 10 0
215 345 215 360 -1 6 -7 18 -15 28 -13 18 -14 18 -25 0z"/>
<path d="M5102 3255 c-83 -141 -154 -266 -158 -277 -5 -18 -3 -19 43 -13 80
11 175 42 238 80 64 37 150 123 179 178 l18 33 -78 119 c-42 66 -80 124 -84
128 -4 4 -75 -107 -158 -248z"/>
<path d="M4853 2779 c-50 -26 -33 -83 35 -113 44 -20 58 -41 42 -61 -17 -21
-47 -24 -76 -9 -31 16 -43 11 -25 -10 30 -36 117 -22 128 22 8 33 -5 51 -58
83 -48 28 -58 49 -34 69 13 11 23 11 48 2 32 -12 47 -8 31 8 -15 15 -67 20
-91 9z"/>
<path d="M4260 2773 c0 -4 14 -51 32 -105 43 -131 55 -130 96 4 30 95 33 125
13 102 -4 -5 -19 -46 -31 -91 -13 -45 -26 -80 -30 -78 -4 2 -17 42 -30 89 -15
51 -30 86 -37 86 -7 0 -13 -3 -13 -7z"/>
<path d="M4460 2675 l0 -105 65 0 c37 0 65 4 65 10 0 6 -25 10 -55 10 l-55 0
0 40 0 40 45 0 c57 0 59 18 3 22 -42 3 -43 4 -43 38 0 35 1 35 50 41 l50 6
-62 1 -63 2 0 -105z"/>
<path d="M4640 2675 c0 -63 4 -105 10 -105 6 0 10 20 10 45 0 40 2 45 23 45
16 0 29 -12 47 -45 14 -25 30 -45 37 -45 18 0 17 5 -11 48 l-24 38 24 21 c54
48 19 103 -64 103 l-52 0 0 -105z m107 68 c20 -26 -6 -57 -51 -61 -36 -3 -36
-3 -36 36 0 21 3 42 7 46 12 12 67 -3 80 -21z"/>
<path d="M5010 2675 l0 -105 65 0 c37 0 65 4 65 10 0 6 -25 10 -55 10 l-55 0
0 40 0 40 45 0 c25 0 45 5 45 10 0 6 -21 10 -46 10 l-45 0 3 38 c3 37 4 37 53
43 l50 6 -62 1 -63 2 0 -105z"/>
</g>
</svg>
